<svg xmlns="http://www.w3.org/2000/svg" viewBox="0 0 760 210" font-family="system-ui, sans-serif">
  <rect width="760" height="210" rx="10" fill="#f6f8fa"/>
  <text x="380" y="28" text-anchor="middle" font-size="15" font-weight="700" fill="#333">Front-end only — static files, public APIs</text>
  <rect x="60" y="55" width="180" height="70" rx="8" fill="#e6f4ea" stroke="#188038" stroke-width="2"/>
  <text x="150" y="85" text-anchor="middle" font-size="13" font-weight="600" fill="#0d5c26">GitHub Pages</text>
  <text x="150" y="105" text-anchor="middle" font-size="11" fill="#3c7a4e">HTML + JS ES modules</text>
  <defs><marker id="arr4" markerWidth="9" markerHeight="9" refX="7" refY="4.5" orient="auto"><path d="M0 0 L9 4.5 L0 9 Z" fill="#888"/></marker></defs>
  <line x1="240" y1="90" x2="320" y2="90" stroke="#888" stroke-width="2" marker-end="url(#arr4)"/>
  <rect x="330" y="55" width="160" height="70" rx="8" fill="#fff" stroke="#333" stroke-width="2"/>
  <text x="410" y="85" text-anchor="middle" font-size="13" font-weight="600" fill="#333">Browser</text>
  <text x="410" y="105" text-anchor="middle" font-size="11" fill="#666">MapLibre + three.js</text>
  <line x1="490" y1="90" x2="570" y2="90" stroke="#888" stroke-width="2" marker-end="url(#arr4)"/>
  <rect x="580" y="45" width="140" height="42" rx="8" fill="#fff3e0" stroke="#ff6f00" stroke-width="2"/>
  <text x="650" y="71" text-anchor="middle" font-size="12" font-weight="600" fill="#b34c00">Panoramax API</text>
  <rect x="580" y="97" width="140" height="42" rx="8" fill="#e8f0fe" stroke="#2962ff" stroke-width="2"/>
  <text x="650" y="123" text-anchor="middle" font-size="12" font-weight="600" fill="#1a44b8">Vector tiles</text>
  <!-- no backend -->
  <g>
    <rect x="290" y="150" width="180" height="40" rx="8" fill="#fdecea" stroke="#c62828" stroke-width="2"/>
    <text x="380" y="175" text-anchor="middle" font-size="13" font-weight="600" fill="#c62828">our backend / DB</text>
    <line x1="290" y1="150" x2="470" y2="190" stroke="#c62828" stroke-width="3"/>
    <line x1="470" y1="150" x2="290" y2="190" stroke="#c62828" stroke-width="3"/>
  </g>
</svg>
